# xmcd
#
# Track frame offsets:
#	150
#	18764
#	36798
#	53405
#	71538
#	90792
#	109509
#	131803
#	149632
#	165918
#	188767
#	204600
#
# Disc length: 2976 seconds
# Revision: 0
# Processed by: cddbd v1.5.2PL0 Copyright (c) Steve Scherf et al.
# Submitted via: dBpowerAMP V12.0
#
DISCID=940b9e0c
DTITLE=Prairie Anthem - The Farmhouse
DYEAR=2019
DGENRE=Country
TTITLE0=Like An Old Fool Does
TTITLE1=Crazy Times
TTITLE2=The Friend I Never Met
TTITLE3=Rock Solid Conviction
TTITLE4=What Tomorrow Brings
TTITLE5=Cold Hard Road
TTITLE6=Round And Around
TTITLE7=If You Try
TTITLE8=Mostly Just For Me
TTITLE9=The Farmhouse
TTITLE10=Woe Is Me
TTITLE11=Old Country Road
EXTD=
EXTT0=
EXTT1=
EXTT2=
EXTT3=
EXTT4=
EXTT5=
EXTT6=
EXTT7=
EXTT8=
EXTT9=
EXTT10=
EXTT11=
PLAYORDER=
